<?xml version="1.0" encoding="utf-8"?>
<!-- Generator: Adobe Illustrator 17.0.0, SVG Export Plug-In . SVG Version: 6.00 Build 0)  -->
<!DOCTYPE svg PUBLIC "-//W3C//DTD SVG 1.1//EN" "http://www.w3.org/Graphics/SVG/1.1/DTD/svg11.dtd">
<svg version="1.1" id="Layer_1" xmlns="http://www.w3.org/2000/svg" xmlns:xlink="http://www.w3.org/1999/xlink" x="0px" y="0px"
	 width="80px" height="80px" viewBox="0 0 80 80" enable-background="new 0 0 80 80" xml:space="preserve">
<g>
	<g>
		<path fill="#FFFFFF" d="M34.519,47.278c-1.594,0-2.891,1.317-2.891,2.935c0,1.593,1.297,2.891,2.891,2.891
			c1.646,0,2.935-1.271,2.935-2.891C37.454,48.566,36.165,47.278,34.519,47.278z"/>
		<path fill="#FFFFFF" d="M49.988,47.278c-1.618,0-2.932,1.317-2.932,2.935c0,1.593,1.313,2.891,2.932,2.891
			c1.597,0,2.894-1.298,2.894-2.891C52.882,48.566,51.611,47.278,49.988,47.278z"/>
	</g>
	<path fill="#FFFFFF" d="M54.566,31.209c-0.227-0.284-0.57-0.448-1.201-0.448H31.663l-1.123-3.085c-0.173-0.468-0.62-0.78-1.12-0.78
		h-3.055c-0.66,0-1.195,0.535-1.195,1.195c0,0.66,0.535,1.195,1.195,1.195h2.223l5.685,15.355c0.176,0.473,0.626,0.78,1.121,0.78
		c0.047,0,0.096-0.003,0.143-0.008L51.475,43.5c0.504-0.061,0.915-0.431,1.027-0.929l2.3-10.356
		C54.88,31.862,54.793,31.491,54.566,31.209z"/>
</g>
</svg>
