<?xml version="1.0" encoding="utf-8"?>
<!-- Generator: Adobe Illustrator 19.0.0, SVG Export Plug-In . SVG Version: 6.00 Build 0)  -->
<svg version="1.1" id="Layer_1" xmlns="http://www.w3.org/2000/svg" xmlns:xlink="http://www.w3.org/1999/xlink" x="0px" y="0px"
	 viewBox="-238 401.4 118 39.5" style="enable-background:new -238 401.4 118 39.5;" xml:space="preserve">
<style type="text/css">
	.st0{fill:#FFFFFF;}
</style>
<path class="st0" d="M-233,426.3c0.1,5.6,0.2,10.1,0.5,9.8c-0.2,0.2,4.3,0.5,9.8,0.5c3.2,0,6.7-0.2,9.9-0.2c5.6-0.1,10-0.1,9.8-0.3
	c0.2,0.2,0.6-4.3,0.6-9.8c0-3.2-0.2-6.7-0.3-9.9c-0.1-5.6-0.1-10-0.3-9.8c0.2-0.2-4.3-0.2-9.8-0.3c-3.2,0-6.7-0.4-9.9-0.4
	c-5.6,0.1-10,0.1-9.8,0.4c-0.2-0.2-0.3,4.5-0.4,10.1C-232.9,419.6-233,423.1-233,426.3z M-228,412.1c0-0.5,0.5-0.7,1-0.7
	c4.6,0,4.6-0.4,9.2-0.4c4.6,0,4.6,0.1,9.2,0.1c0.5,0,0.9,0.4,0.9,0.9c0,4.6-0.2,4.6-0.2,9.2s0.1,4.6,0.1,9.2c0,0.5-0.4,0.9-0.9,0.9
	c-4.6,0-4.6-0.1-9.2-0.1c-4.6,0-4.6,0.2-9.2,0.2c-0.5,0-1-0.5-1-1c0-4.6,0-4.6,0-9.2C-228.1,416.7-228,416.7-228,412.1z"/>
<g>
	<path class="st0" d="M-192,408.2c2,1.9,1.4,6.5-1.3,7.3c-0.4,0.1-2.4,0.1-2.4,0.4c0,0.7,0,1.5,0,2.2c0,0.8,0,1.6,0,2.3
		c0,0.5-1.1,0.3-1.4,0.3c-1.4,0-1.4-0.2-1.4-1.5c0-3.5,0-7.1,0-10.6c0-1.2-0.1-1.5,1.2-1.5C-195.6,407.2-193.4,406.9-192,408.2
		C-191.6,408.6-192.4,407.8-192,408.2z M-193.6,412.4c0.1-1.2,0.2-2.8-1.3-2.8c-1,0-0.8,0.1-0.8,1.1c0,0.9,0,1.8,0,2.6
		C-195.8,413.6-193.7,413.4-193.6,412.4C-193.6,412.1-193.6,412.6-193.6,412.4z"/>
	<path class="st0" d="M-182.8,419.2c0.1,0.3,0.5,1.1,0.2,1.4c-0.2,0.3-2.6,0.3-2.6-0.1c-0.5-0.5,0-2.2-0.6-2.5
		c-0.2-0.1-2.2-0.1-2.4,0c-0.5,0.4-0.1,2.1-0.6,2.5c-0.1,0.4-2.4,0.4-2.6,0.1c-0.5-0.6,0.9-3.9,1-4.6c0.6-2.4,1.2-4.8,1.8-7.2
		c0.1-0.3,0.1-1.2,0.4-1.4c0.1-0.4,2.2-0.4,2.3,0C-184.8,411.4-183.8,415.3-182.8,419.2z M-187,412.6c-0.2,1-0.4,2-0.7,3.1
		c0.4,0,0.9,0,1.3,0L-187,412.6z"/>
	<path class="st0" d="M-173.3,420.3c0.3,0.7-2.1,0.4-2.4,0.4c-0.6,0-1-1.9-1.1-2.3c-0.4-1.1-0.8-2.1-1.1-3.2c0-0.1-0.8-0.2-0.8,0.1
		c0,0.4,0,0.9,0,1.3c0,1.2,0,2.4,0,3.6c0,0.8-1.8,0.5-2.3,0.5c-0.8,0-0.4-11.1-0.4-12.5c0-0.5-0.1-1,0.5-1c1.1,0,2.1,0,3.2,0
		c1.8,0,3.4,0.8,3.9,2.6c0.5,1.8,0.2,4-1.6,4.9C-174.7,416.6-174,418.4-173.3,420.3z M-178.7,411.9c0,1-0.2,1.1,0.8,1.1
		c1.4,0,1.6-0.9,1.5-2.1c-0.1-1.3-1.2-1.3-2.3-1.3C-178.7,410.3-178.7,411.1-178.7,411.9z"/>
	<path class="st0" d="M-172.2,418.7c0-3,0-6,0-9c0-0.4-0.3-1.8,0.1-2.2c0.4-0.4,2.4-0.1,2.9-0.1c0.7,0,2.9-0.4,3.5,0
		c0.5,0,0.6,2.3,0,2.3c-1.2,0-2.5,0-3.7,0c-0.1,0-0.1,2.7-0.1,3.1c0,0.1,2.9,0.1,3.2,0.1c0.6,0,0.6,2.3,0.1,2.3
		c-0.7,0.4-2.7-0.6-3.3,0c-0.1,0.1-0.1,3,0,3.1c0.5,0.4,3,0,3.6,0c0.7,0,0.8,2,0.4,2.3c-0.5,0.5-2.7,0.1-3.3,0.1c-1,0-2.1,0-3.1,0
		C-172.4,420.7-172.2,419-172.2,418.7z"/>
	<path class="st0" d="M-157.9,419.8c-1.5,1.3-4.1,0.9-6,0.9c-0.7,0-0.4-1.9-0.4-2.3c0-3.4,0-6.9,0-10.4c0-1.3,1.2-0.9,2.3-0.9
		c2.2,0,4.8,0.3,5.2,3c0.2,1.5,0,3.1,0,4.7C-156.7,416.5-156.4,418.7-157.9,419.8C-158.6,420.5-157.1,419.2-157.9,419.8z
		 M-159.5,411.6c0-0.8,0.1-1.8-0.9-2c-0.8-0.1-1.2-0.3-1.2,0.5c0,2.1,0,4.2,0,6.4c0,0.7,0,1.3,0,1.9c0,0.2,2,0,2-1.3
		C-159.5,415.3-159.5,413.5-159.5,411.6z"/>
	<path class="st0" d="M-155.6,418.7c0-3,0-6,0-9c0-0.4-0.3-1.8,0.1-2.2c0.4-0.4,2.4-0.1,2.9-0.1c0.7,0,2.9-0.4,3.5,0
		c0.5,0,0.6,2.3,0,2.3c-1.2,0-2.5,0-3.7,0c-0.1,0-0.1,2.7-0.1,3.1c0,0.1,2.9,0.1,3.2,0.1c0.6,0,0.6,2.3,0.1,2.3
		c-0.7,0.4-2.7-0.6-3.3,0c-0.1,0.1-0.1,3,0,3.1c0.5,0.4,3,0,3.6,0c0.7,0,0.8,2,0.4,2.3c-0.5,0.5-2.7,0.1-3.3,0.1c-1,0-2.1,0-3.1,0
		C-155.9,420.7-155.6,419-155.6,418.7z"/>
	<path class="st0" d="M-139.5,420.3c0.3,0.7-2.1,0.4-2.4,0.4c-0.6,0-1-1.9-1.1-2.3c-0.4-1.1-0.8-2.1-1.1-3.2c0-0.1-0.8-0.2-0.8,0.1
		c0,0.4,0,0.9,0,1.3c0,1.2,0,2.4,0,3.6c0,0.8-1.8,0.5-2.3,0.5c-0.8,0-0.4-11.1-0.4-12.5c0-0.5-0.1-1,0.5-1c1.1,0,2.1,0,3.2,0
		c1.8,0,3.4,0.8,3.9,2.6c0.5,1.8,0.2,4-1.6,4.9C-140.9,416.6-140.2,418.4-139.5,420.3z M-144.9,411.9c0,1-0.2,1.1,0.8,1.1
		c1.4,0,1.6-0.9,1.5-2.1c-0.1-1.3-1.2-1.3-2.3-1.3C-144.9,410.3-144.9,411.1-144.9,411.9z"/>
	<path class="st0" d="M-138.4,412.5c0-1.5,0-3,0-4.4c0-0.9,1.8-1.1,2.4-0.7c0.6,0,0.3,7.6,0.3,8.3c0,1.5,0,3,0,4.4
		c0,1.1-1.5,0.7-2.4,0.7C-138.7,420.8-138.4,413.2-138.4,412.5z"/>
	<path class="st0" d="M-126,419.2c0.1,0.3,0.5,1.1,0.2,1.4c-0.2,0.3-2.6,0.3-2.6-0.1c-0.5-0.5,0-2.2-0.6-2.5c-0.2-0.1-2.2-0.1-2.4,0
		c-0.5,0.4-0.1,2.1-0.6,2.5c-0.1,0.4-2.4,0.4-2.6,0.1c-0.5-0.6,0.9-3.9,1-4.6c0.6-2.4,1.2-4.8,1.8-7.2c0.1-0.3,0.1-1.2,0.4-1.4
		c0.1-0.4,2.2-0.4,2.3,0C-128,411.4-127,415.3-126,419.2z M-130.1,412.6c-0.2,1-0.4,2-0.7,3.1c0.4,0,0.9,0,1.3,0L-130.1,412.6z"/>
</g>
<g>
	<path class="st0" d="M-189.6,434.2c0,0.5,0.1,0.9-0.5,0.9c-0.4,0-1.8,0.3-1.8-0.4c0-1.7,0-3.5,0-5.2c-0.4,1-0.8,3.6-2,3.6
		c-1.2,0-1.6-2.6-2-3.6c0,1.3,0,2.5,0,3.8c0,1.5,0.1,1.7-1.5,1.7c-1.1,0-0.8-0.6-0.8-1.5c0-1.5,0-3.1,0-4.6c0-1.4,0-2.9,0-4.3
		c0-1.1,0.2-1.1,1.4-1.1c1.2,0,1.3,1.4,1.6,2.3c0.4,1,0.8,2,1.2,3.1c0.5-1.3,1-2.6,1.6-4c0.6-1.5,0.8-1.4,2.5-1.4
		C-189.4,423.6-189.6,433.1-189.6,434.2z"/>
	<path class="st0" d="M-181.5,433.8c0.1,0.2,0.4,0.9,0.2,1.2c-0.2,0.2-2.1,0.2-2.2-0.1c-0.4-0.4,0-1.8-0.5-2.1c-0.2-0.1-1.8-0.1-2,0
		c-0.5,0.3-0.1,1.7-0.5,2.1c-0.1,0.3-2,0.3-2.2,0.1c-0.4-0.5,0.7-3.3,0.9-3.8c0.5-2,1-4,1.6-6c0-0.2,0.1-1,0.3-1.2
		c0.1-0.3,1.9-0.3,2,0C-183.2,427.2-182.3,430.5-181.5,433.8z M-185,428.2c-0.2,0.9-0.4,1.7-0.6,2.6c0.4,0,0.8,0,1.1,0L-185,428.2z"
		/>
	<path class="st0" d="M-173.2,435c-0.2,0.3-1.5,0.1-1.9,0.1c-0.5,0-0.6-0.4-0.7-0.8c-0.5-1.3-1-2.5-1.6-3.7c-0.7,1.1-0.7,1.7-0.7,3
		c0,1.6-0.1,1.5-1.8,1.5c-1.1,0-0.5-4.5-0.5-5.4c0-0.6-0.4-6,0.3-6c1.2,0,2-0.3,2,1c0,1.1,0,2.2,0,3.2c0.3-0.6,1.7-4.2,2.4-4.2
		c0.3-0.1,2.3-0.1,2,0.4c-0.4,0.7-0.8,1.4-1.2,2.1c-0.3,0.5-1.2,1.5-1.2,2.1c0,0.5,0.6,1.4,0.8,1.8c0.5,1.1,1,2.2,1.4,3.3
		C-173.6,433.7-172.9,434.7-173.2,435C-173.2,435.1-173.1,434.9-173.2,435z"/>
	<path class="st0" d="M-172.2,433.3c0-2.5,0-5,0-7.6c0-0.4-0.2-1.5,0.1-1.8c0.4-0.4,2-0.1,2.5-0.1c0.6,0,2.4-0.3,2.9,0
		c0.4,0,0.5,1.9,0,1.9c-1,0-2.1,0-3.1,0c-0.1,0,0,2.3,0,2.6c0,0.1,2.4,0.1,2.7,0.1c0.5,0,0.5,1.9,0,1.9c-0.6,0.4-2.3-0.5-2.8,0
		c-0.1,0.1-0.1,2.5,0,2.6c0.4,0.3,2.5,0,3.1,0c0.6,0,0.7,1.6,0.3,2c-0.4,0.4-2.3,0.1-2.8,0.1c-0.9,0-1.7,0-2.6,0
		C-172.4,435-172.2,433.5-172.2,433.3z"/>
	<path class="st0" d="M-158.6,434.7c0.2,0.6-1.8,0.4-2.1,0.4c-0.5,0-0.8-1.6-0.9-1.9c-0.3-0.9-0.6-1.8-1-2.7c0-0.1-0.6-0.1-0.6,0.1
		c0,0.4,0,0.7,0,1.1c0,1,0,2,0,3c0,0.7-1.5,0.4-2,0.4c-0.7,0-0.3-9.4-0.3-10.5c0-0.4-0.1-0.9,0.4-0.9c0.9,0,1.8,0,2.7,0
		c1.5,0,2.8,0.6,3.2,2.1c0.4,1.5,0.1,3.3-1.3,4.1C-159.9,431.5-159.2,433.1-158.6,434.7z M-163.2,427.6c0,0.8-0.2,0.9,0.6,0.9
		c1.2,0,1.4-0.8,1.3-1.8c-0.1-1.1-1-1.1-1.9-1.1C-163.2,426.3-163.2,426.9-163.2,427.6z"/>
	<path class="st0" d="M-155.3,430.5c0-0.1,0-0.1,0.1-0.2c0.1-0.1,0.1-0.1,0.2-0.1c0.1,0,0.2,0,0.2,0.1l1.1,3l1.1-2.9
		c0-0.1,0.1-0.2,0.2-0.2c0.1,0,0.1,0,0.2,0.1c0.1,0,0.1,0.1,0.1,0.2c0,0,0,0.1,0,0.1l-1.3,3.5c0,0.1-0.1,0.1-0.2,0.1
		c-0.1,0-0.2,0-0.2-0.1l-1.3-3.5C-155.3,430.6-155.3,430.6-155.3,430.5z"/>
	<path class="st0" d="M-151.4,432.5v-2.6c0-0.6,0.2-1,0.5-1.3c0.3-0.3,0.7-0.4,1.2-0.4s0.9,0.1,1.2,0.4c0.3,0.3,0.5,0.7,0.5,1.3v2.6
		c0,0.6-0.2,1.1-0.5,1.3c-0.3,0.3-0.7,0.4-1.2,0.4s-0.9-0.1-1.2-0.4C-151.3,433.5-151.4,433.1-151.4,432.5z M-150.9,432.5
		c0,0.8,0.4,1.3,1.1,1.3c0.8,0,1.1-0.4,1.1-1.3v-2.6c0-0.8-0.4-1.3-1.1-1.3c-0.8,0-1.1,0.4-1.1,1.3V432.5z M-150,431.2
		c0-0.1,0-0.2,0.1-0.2c0.1-0.1,0.1-0.1,0.2-0.1c0.1,0,0.1,0,0.2,0.1c0.1,0.1,0.1,0.1,0.1,0.2c0,0.1,0,0.1-0.1,0.2
		c-0.1,0.1-0.1,0.1-0.2,0.1c-0.1,0-0.1,0-0.2-0.1C-150,431.3-150,431.3-150,431.2z"/>
	<path class="st0" d="M-147.3,433.8c0-0.1,0-0.2,0.1-0.3c0.1-0.1,0.2-0.1,0.3-0.1c0.1,0,0.2,0,0.3,0.1c0.1,0.1,0.1,0.2,0.1,0.3
		c0,0.1,0,0.2-0.1,0.3c-0.1,0.1-0.2,0.1-0.3,0.1c-0.1,0-0.2,0-0.3-0.1C-147.2,434-147.3,433.9-147.3,433.8z"/>
	<path class="st0" d="M-146.2,429.5c0-0.1,0-0.2,0.1-0.2l0.7-1c0.1-0.1,0.1-0.1,0.2-0.1c0.1,0,0.1,0,0.2,0.1s0.1,0.1,0.1,0.1v5.6
		c0,0.1,0,0.1-0.1,0.2c-0.1,0-0.1,0.1-0.2,0.1c-0.1,0-0.1,0-0.2-0.1s-0.1-0.1-0.1-0.2v-4.9l-0.3,0.5c0,0.1-0.1,0.1-0.2,0.1
		s-0.1,0-0.2-0.1C-146.2,429.6-146.2,429.5-146.2,429.5z"/>
</g>
</svg>
