<?xml version="1.0" encoding="utf-8"?>
<!-- Generator: Adobe Illustrator 17.0.0, SVG Export Plug-In . SVG Version: 6.00 Build 0)  -->
<!DOCTYPE svg PUBLIC "-//W3C//DTD SVG 1.1//EN" "http://www.w3.org/Graphics/SVG/1.1/DTD/svg11.dtd">
<svg version="1.1" id="Layer_1" xmlns="http://www.w3.org/2000/svg" xmlns:xlink="http://www.w3.org/1999/xlink" x="0px" y="0px"
	 width="50px" height="50px" viewBox="0 0 50 50" enable-background="new 0 0 50 50" xml:space="preserve">
<g>
	<g>
		<g>
			<path fill="#010101" d="M17.378,36.769c-0.866,0-1.695-0.339-2.336-0.979l-5.086-5.086c-1.281-1.281-1.281-3.39,0-4.709
				l15.784-15.784c0.64-0.64,1.469-0.979,2.336-0.979c0.904,0,1.733,0.339,2.336,0.979l5.086,5.086c1.281,1.281,1.281,3.39,0,4.709
				L19.713,35.789C19.073,36.467,18.206,36.769,17.378,36.769z M28.076,10.964c-0.452,0-0.829,0.188-1.168,0.49L11.124,27.238
				c-0.64,0.64-0.64,1.658,0,2.298l5.086,5.086c0.64,0.64,1.658,0.64,2.298,0l15.784-15.784c0.64-0.64,0.64-1.658,0-2.298
				l-5.086-5.086C28.905,11.115,28.491,10.964,28.076,10.964z"/>
		</g>
	</g>
	<g>
		<g>
			<path fill="#010101" d="M21.484,34.433c-0.377,0-0.678-0.226-0.791-0.603c-0.151-0.452,0.113-0.904,0.565-1.055L36.1,28.18
				c0.414-0.113,0.753-0.414,0.979-0.791c0.188-0.377,0.226-0.791,0.113-1.205l-1.017-2.637c-0.151-0.452,0.038-0.942,0.49-1.092
				s0.942,0.038,1.092,0.49l1.055,2.675c0,0,0,0.038,0.038,0.038c0.264,0.866,0.188,1.733-0.226,2.524
				c-0.414,0.791-1.13,1.356-1.959,1.62l-14.842,4.596C21.635,34.396,21.559,34.433,21.484,34.433z"/>
		</g>
	</g>
	<g>
		<g>
			<path fill="#010101" d="M20.015,35.563c-0.264,0-0.527-0.113-0.716-0.377c-0.264-0.377-0.151-0.904,0.226-1.168l16.5-11.151
				c0.339-0.226,0.603-0.603,0.678-1.055c0.075-0.452,0-0.866-0.264-1.205l-1.432-2.11c-0.264-0.377-0.151-0.904,0.226-1.168
				c0.377-0.264,0.904-0.151,1.168,0.226l1.432,2.11c0.49,0.716,0.678,1.62,0.527,2.486c-0.151,0.866-0.64,1.62-1.394,2.147
				l-16.5,11.151C20.316,35.488,20.165,35.563,20.015,35.563z"/>
		</g>
	</g>
	<g>
		<g>
			<path fill="#010101" d="M18.847,36.505c-0.414,0-0.791-0.301-0.829-0.753c-0.038-0.452,0.264-0.904,0.753-0.942l16.801-1.921
				c0.414-0.038,0.829-0.264,1.092-0.603c0.264-0.339,0.377-0.753,0.339-1.205l-0.339-2.788c-0.038-0.452,0.264-0.904,0.753-0.942
				c0.452-0.075,0.904,0.264,0.942,0.753l0.339,2.788c0.113,0.866-0.151,1.771-0.678,2.449c-0.565,0.716-1.356,1.13-2.223,1.243
				l-16.801,1.921C18.922,36.505,18.885,36.505,18.847,36.505z"/>
		</g>
	</g>
	<g>
		<g>
			<path fill="#010101" d="M16.361,31.796c-0.603,0-1.168-0.226-1.582-0.64c-0.866-0.866-0.866-2.298,0-3.164
				c0.866-0.866,2.298-0.866,3.164,0c0.414,0.414,0.64,0.979,0.64,1.582s-0.226,1.168-0.64,1.582l0,0
				C17.528,31.57,16.963,31.796,16.361,31.796L16.361,31.796z M16.361,29.046c-0.151,0-0.264,0.038-0.377,0.151
				c-0.113,0.113-0.151,0.226-0.151,0.377c0,0.151,0.038,0.264,0.151,0.377c0.226,0.226,0.565,0.226,0.753,0l0,0
				c0.113-0.113,0.151-0.226,0.151-0.377c0-0.151-0.038-0.264-0.151-0.377C16.624,29.084,16.511,29.046,16.361,29.046z"/>
		</g>
	</g>
	<g>
		<g>
			<path fill="#010101" d="M21.672,29.498c-0.226,0-0.452-0.075-0.603-0.264l-4.596-4.596c-0.339-0.339-0.339-0.866,0-1.205
				l2.336-2.336c0.301-0.301,0.866-0.301,1.205,0l4.596,4.596c0.151,0.151,0.264,0.377,0.264,0.603s-0.075,0.452-0.264,0.603
				l-2.336,2.336C22.087,29.423,21.898,29.498,21.672,29.498z M18.282,24.074l3.39,3.39l1.168-1.168l-3.39-3.39L18.282,24.074z"/>
		</g>
	</g>
	<g>
		<g>
			<path fill="#010101" d="M25.929,25.241c-0.226,0-0.452-0.075-0.603-0.264l-4.596-4.596c-0.339-0.339-0.339-0.866,0-1.205
				l2.336-2.336c0.301-0.301,0.866-0.301,1.205,0l4.596,4.596c0.339,0.339,0.339,0.866,0,1.205l-2.336,2.336
				C26.381,25.166,26.155,25.241,25.929,25.241z M22.539,19.779l3.39,3.39l1.168-1.168l-3.39-3.39L22.539,19.779z"/>
		</g>
	</g>
	<g>
		<g>
			<path fill="#010101" d="M30.224,20.985c-0.226,0-0.452-0.075-0.603-0.264l-4.596-4.596c-0.339-0.339-0.339-0.866,0-1.205
				l2.336-2.336c0.301-0.301,0.866-0.301,1.205,0l4.596,4.596c0.339,0.339,0.339,0.866,0,1.205l-2.336,2.336
				C30.638,20.872,30.412,20.985,30.224,20.985z M26.796,15.522l3.39,3.39l1.168-1.168l-3.39-3.39L26.796,15.522z"/>
		</g>
	</g>
</g>
</svg>
