<?xml version="1.0" encoding="utf-8"?>
<!-- Generator: Adobe Illustrator 17.0.0, SVG Export Plug-In . SVG Version: 6.00 Build 0)  -->
<!DOCTYPE svg PUBLIC "-//W3C//DTD SVG 1.1//EN" "http://www.w3.org/Graphics/SVG/1.1/DTD/svg11.dtd">
<svg version="1.1" id="Layer_1" xmlns="http://www.w3.org/2000/svg" xmlns:xlink="http://www.w3.org/1999/xlink" x="0px" y="0px"
	 width="50px" height="50px" viewBox="0 0 50 50" enable-background="new 0 0 50 50" xml:space="preserve">
<path fill="#010101" d="M16.36,35.92h17.28c1.248,0,2.28-1.032,2.28-2.28V16.36c0-1.248-1.032-2.28-2.28-2.28H16.36
	c-1.248,0-2.28,1.032-2.28,2.28v17.28C14.08,34.888,15.112,35.92,16.36,35.92z M16.768,16.768h16.44V27.52l-3.36-3.36
	c-0.192-0.192-0.504-0.192-0.696,0l-2.496,2.472l-4.272-4.296c-0.192-0.192-0.504-0.192-0.696,0l-4.92,4.92V16.768z M25.36,20.296
	c0-1.056,0.84-1.896,1.896-1.896s1.896,0.84,1.896,1.896s-0.84,1.896-1.896,1.896S25.36,21.352,25.36,20.296z"/>
</svg>
